<svg xmlns="http://www.w3.org/2000/svg" viewBox="0 0 86.58 34.81"><title>자산 3</title><g id="레이어_2" data-name="레이어 2"><g id="레이어_1-2" data-name="레이어 1"><path d="M0,12.71V5.92L12.76,0V33.49H5.28V10.36Z"/><path d="M28.42,33.49H20.5V.88h9.24L38.4,18.43,47,.88h9.29V33.49H48.32V14.86l-9.92,20-10-20Z"/><path d="M86.58,22.44c0,6.7-5.62,11.93-12.76,11.93-7.34,0-12.67-5.08-12.67-12.17S66.38,10,73.92,10C81.25,10,86.58,15.21,86.58,22.44Zm-18-.24c0,3.32,2.15,5.62,5.28,5.62a5.13,5.13,0,0,0,5.24-5.48c0-3.62-2-5.77-5.18-5.77S68.58,18.82,68.58,22.2Z"/></g></g></svg>