<?xml version="1.0" encoding="utf-8"?>
<!-- Generator: Adobe Illustrator 22.0.1, SVG Export Plug-In . SVG Version: 6.00 Build 0)  -->
<svg version="1.1" id="레이어_1" xmlns="http://www.w3.org/2000/svg" xmlns:xlink="http://www.w3.org/1999/xlink" x="0px"
	 y="0px" viewBox="0 0 86.6 34.8" style="enable-background:new 0 0 86.6 34.8;" xml:space="preserve">
<title>자산 3</title>
<g id="레이어_2_1_">
	<g id="레이어_1-2">
		<path d="M0,12.7V5.9L12.8,0v33.5H5.3V10.4L0,12.7z"/>
		<path d="M28.4,33.5h-7.9V0.9h9.2l8.7,16.6L47,0.9h9.3v32.6h-8V14.9l-9.9,19l-10-19L28.4,33.5z"/>
		<path d="M86.6,22.4c0,6.7-5.6,11.9-12.8,11.9c-7.3,0-12.7-5.1-12.7-12.2S66.4,10,73.9,10C81.2,10,86.6,15.2,86.6,22.4z M68.6,22.2
			c0,3.3,2.1,5.6,5.3,5.6c6.9,0,7-11.2,0.1-11.2C70.7,16.6,68.6,18.8,68.6,22.2z"/>
	</g>
</g>
</svg>
